<mxfile host="Electron" modified="2024-07-05T15:09:51.727Z" agent="Mozilla/5.0 (Windows NT 10.0; Win64; x64) AppleWebKit/537.36 (KHTML, like Gecko) draw.io/24.2.5 Chrome/120.0.6099.109 Electron/28.1.0 Safari/537.36" etag="VdScg3DB9ZeNez-5p1IW" version="24.2.5" type="device">
  <diagram name="第 1 页" id="9gous1JGys_ORvjbs21I">
    <mxGraphModel dx="271" dy="1088" grid="1" gridSize="10" guides="1" tooltips="1" connect="1" arrows="1" fold="1" page="1" pageScale="1" pageWidth="827" pageHeight="1169" math="0" shadow="0">
      <root>
        <mxCell id="0" />
        <mxCell id="1" parent="0" />
        <mxCell id="Dyjvj59BlJFhL8W1Vqrt-180" value="" style="group" parent="1" vertex="1" connectable="0">
          <mxGeometry x="1132" y="140" width="3526" height="674.057268487675" as="geometry" />
        </mxCell>
        <mxCell id="Dyjvj59BlJFhL8W1Vqrt-1" style="edgeStyle=orthogonalEdgeStyle;rounded=0;orthogonalLoop=1;jettySize=auto;html=1;exitX=0;exitY=0.25;exitDx=0;exitDy=0;dashed=1;curved=1;entryX=0.614;entryY=1;entryDx=0;entryDy=0;entryPerimeter=0;" parent="Dyjvj59BlJFhL8W1Vqrt-180" source="Dyjvj59BlJFhL8W1Vqrt-141" target="Dyjvj59BlJFhL8W1Vqrt-179" edge="1">
          <mxGeometry relative="1" as="geometry">
            <mxPoint x="2846" y="214" as="targetPoint" />
          </mxGeometry>
        </mxCell>
        <mxCell id="Dyjvj59BlJFhL8W1Vqrt-2" style="edgeStyle=orthogonalEdgeStyle;rounded=0;orthogonalLoop=1;jettySize=auto;html=1;exitX=1;exitY=0.25;exitDx=0;exitDy=0;entryX=0.5;entryY=1;entryDx=0;entryDy=0;dashed=1;curved=1;" parent="Dyjvj59BlJFhL8W1Vqrt-180" source="Dyjvj59BlJFhL8W1Vqrt-147" target="Dyjvj59BlJFhL8W1Vqrt-177" edge="1">
          <mxGeometry relative="1" as="geometry" />
        </mxCell>
        <mxCell id="Dyjvj59BlJFhL8W1Vqrt-3" style="edgeStyle=orthogonalEdgeStyle;rounded=0;orthogonalLoop=1;jettySize=auto;html=1;exitX=1;exitY=0.5;exitDx=0;exitDy=0;dashed=1;curved=1;" parent="Dyjvj59BlJFhL8W1Vqrt-180" source="Dyjvj59BlJFhL8W1Vqrt-177" target="Dyjvj59BlJFhL8W1Vqrt-143" edge="1">
          <mxGeometry relative="1" as="geometry" />
        </mxCell>
        <mxCell id="Dyjvj59BlJFhL8W1Vqrt-4" style="edgeStyle=orthogonalEdgeStyle;rounded=0;orthogonalLoop=1;jettySize=auto;html=1;exitX=1;exitY=0.25;exitDx=0;exitDy=0;entryX=0.15;entryY=0.95;entryDx=0;entryDy=0;entryPerimeter=0;dashed=1;curved=1;" parent="Dyjvj59BlJFhL8W1Vqrt-180" source="Dyjvj59BlJFhL8W1Vqrt-134" target="Dyjvj59BlJFhL8W1Vqrt-177" edge="1">
          <mxGeometry relative="1" as="geometry" />
        </mxCell>
        <mxCell id="Dyjvj59BlJFhL8W1Vqrt-5" style="edgeStyle=orthogonalEdgeStyle;rounded=0;orthogonalLoop=1;jettySize=auto;html=1;exitX=1;exitY=0.25;exitDx=0;exitDy=0;entryX=0.323;entryY=0.992;entryDx=0;entryDy=0;entryPerimeter=0;dashed=1;curved=1;" parent="Dyjvj59BlJFhL8W1Vqrt-180" source="Dyjvj59BlJFhL8W1Vqrt-139" target="Dyjvj59BlJFhL8W1Vqrt-177" edge="1">
          <mxGeometry relative="1" as="geometry" />
        </mxCell>
        <mxCell id="Dyjvj59BlJFhL8W1Vqrt-6" style="edgeStyle=orthogonalEdgeStyle;rounded=0;orthogonalLoop=1;jettySize=auto;html=1;exitX=1;exitY=0.25;exitDx=0;exitDy=0;entryX=0.705;entryY=0.97;entryDx=0;entryDy=0;entryPerimeter=0;dashed=1;curved=1;" parent="Dyjvj59BlJFhL8W1Vqrt-180" source="Dyjvj59BlJFhL8W1Vqrt-151" target="Dyjvj59BlJFhL8W1Vqrt-177" edge="1">
          <mxGeometry relative="1" as="geometry" />
        </mxCell>
        <mxCell id="Dyjvj59BlJFhL8W1Vqrt-8" style="edgeStyle=orthogonalEdgeStyle;rounded=0;orthogonalLoop=1;jettySize=auto;html=1;exitX=0;exitY=0.25;exitDx=0;exitDy=0;entryX=0.849;entryY=1.026;entryDx=0;entryDy=0;entryPerimeter=0;dashed=1;curved=1;" parent="Dyjvj59BlJFhL8W1Vqrt-180" source="Dyjvj59BlJFhL8W1Vqrt-136" target="Dyjvj59BlJFhL8W1Vqrt-179" edge="1">
          <mxGeometry relative="1" as="geometry" />
        </mxCell>
        <mxCell id="Dyjvj59BlJFhL8W1Vqrt-9" style="edgeStyle=orthogonalEdgeStyle;rounded=0;orthogonalLoop=1;jettySize=auto;html=1;exitX=0;exitY=0.25;exitDx=0;exitDy=0;entryX=0.401;entryY=0.962;entryDx=0;entryDy=0;entryPerimeter=0;dashed=1;curved=1;" parent="Dyjvj59BlJFhL8W1Vqrt-180" source="Dyjvj59BlJFhL8W1Vqrt-149" target="Dyjvj59BlJFhL8W1Vqrt-179" edge="1">
          <mxGeometry relative="1" as="geometry" />
        </mxCell>
        <mxCell id="Dyjvj59BlJFhL8W1Vqrt-10" style="edgeStyle=orthogonalEdgeStyle;rounded=0;orthogonalLoop=1;jettySize=auto;html=1;exitX=0;exitY=0.25;exitDx=0;exitDy=0;entryX=0.164;entryY=0.97;entryDx=0;entryDy=0;entryPerimeter=0;dashed=1;curved=1;" parent="Dyjvj59BlJFhL8W1Vqrt-180" source="Dyjvj59BlJFhL8W1Vqrt-153" target="Dyjvj59BlJFhL8W1Vqrt-179" edge="1">
          <mxGeometry relative="1" as="geometry" />
        </mxCell>
        <mxCell id="Dyjvj59BlJFhL8W1Vqrt-11" style="edgeStyle=entityRelationEdgeStyle;rounded=0;orthogonalLoop=1;jettySize=auto;html=1;exitX=1;exitY=0.5;exitDx=0;exitDy=0;entryX=0;entryY=0.5;entryDx=0;entryDy=0;dashed=1;" parent="Dyjvj59BlJFhL8W1Vqrt-180" source="Dyjvj59BlJFhL8W1Vqrt-101" target="Dyjvj59BlJFhL8W1Vqrt-89" edge="1">
          <mxGeometry relative="1" as="geometry" />
        </mxCell>
        <mxCell id="Dyjvj59BlJFhL8W1Vqrt-12" style="edgeStyle=orthogonalEdgeStyle;rounded=0;orthogonalLoop=1;jettySize=auto;html=1;entryX=0;entryY=0.5;entryDx=0;entryDy=0;dashed=1;curved=1;exitX=0.5;exitY=1;exitDx=0;exitDy=0;" parent="Dyjvj59BlJFhL8W1Vqrt-180" source="Dyjvj59BlJFhL8W1Vqrt-77" target="Dyjvj59BlJFhL8W1Vqrt-56" edge="1">
          <mxGeometry relative="1" as="geometry" />
        </mxCell>
        <mxCell id="Dyjvj59BlJFhL8W1Vqrt-13" style="edgeStyle=entityRelationEdgeStyle;rounded=0;orthogonalLoop=1;jettySize=auto;html=1;entryX=0;entryY=0.5;entryDx=0;entryDy=0;dashed=1;exitX=0.75;exitY=0;exitDx=0;exitDy=0;elbow=vertical;" parent="Dyjvj59BlJFhL8W1Vqrt-180" source="Dyjvj59BlJFhL8W1Vqrt-87" target="Dyjvj59BlJFhL8W1Vqrt-81" edge="1">
          <mxGeometry relative="1" as="geometry" />
        </mxCell>
        <mxCell id="Dyjvj59BlJFhL8W1Vqrt-14" value="" style="edgeStyle=orthogonalEdgeStyle;rounded=0;orthogonalLoop=1;jettySize=auto;html=1;exitX=0;exitY=0.5;exitDx=0;exitDy=0;" parent="Dyjvj59BlJFhL8W1Vqrt-180" source="Dyjvj59BlJFhL8W1Vqrt-78" target="Dyjvj59BlJFhL8W1Vqrt-19" edge="1">
          <mxGeometry relative="1" as="geometry" />
        </mxCell>
        <mxCell id="Dyjvj59BlJFhL8W1Vqrt-15" style="edgeStyle=orthogonalEdgeStyle;rounded=0;orthogonalLoop=1;jettySize=auto;html=1;exitX=0;exitY=0.5;exitDx=0;exitDy=0;exitPerimeter=0;entryX=1;entryY=0.5;entryDx=0;entryDy=0;" parent="Dyjvj59BlJFhL8W1Vqrt-180" source="Dyjvj59BlJFhL8W1Vqrt-17" target="Dyjvj59BlJFhL8W1Vqrt-78" edge="1">
          <mxGeometry relative="1" as="geometry" />
        </mxCell>
        <mxCell id="Dyjvj59BlJFhL8W1Vqrt-16" style="edgeStyle=orthogonalEdgeStyle;rounded=0;orthogonalLoop=1;jettySize=auto;html=1;exitX=1;exitY=0.5;exitDx=0;exitDy=0;entryX=0.5;entryY=0;entryDx=0;entryDy=0;" parent="Dyjvj59BlJFhL8W1Vqrt-180" source="Dyjvj59BlJFhL8W1Vqrt-172" target="Dyjvj59BlJFhL8W1Vqrt-161" edge="1">
          <mxGeometry relative="1" as="geometry" />
        </mxCell>
        <mxCell id="Dyjvj59BlJFhL8W1Vqrt-17" value="&lt;b style=&quot;font-size: 12px;&quot;&gt;&lt;font style=&quot;font-size: 12px;&quot;&gt;Start&lt;/font&gt;&lt;/b&gt;" style="strokeWidth=2;html=1;shape=mxgraph.flowchart.start_1;whiteSpace=wrap;align=center;fontSize=12;" parent="Dyjvj59BlJFhL8W1Vqrt-180" vertex="1">
          <mxGeometry x="983.997251726958" width="61.58577366924964" height="41.05726848767489" as="geometry" />
        </mxCell>
        <mxCell id="Dyjvj59BlJFhL8W1Vqrt-18" value="" style="edgeStyle=orthogonalEdgeStyle;rounded=0;orthogonalLoop=1;jettySize=auto;html=1;" parent="Dyjvj59BlJFhL8W1Vqrt-180" source="Dyjvj59BlJFhL8W1Vqrt-19" target="Dyjvj59BlJFhL8W1Vqrt-38" edge="1">
          <mxGeometry relative="1" as="geometry" />
        </mxCell>
        <mxCell id="Dyjvj59BlJFhL8W1Vqrt-19" value="api/Episode/Add&lt;div&gt;（请求体&lt;span style=&quot;background-color: initial;&quot;&gt;EpisodeAddRequest、JWT 权限认证）&lt;/span&gt;&lt;/div&gt;" style="shape=parallelogram;perimeter=parallelogramPerimeter;whiteSpace=wrap;html=1;fixedSize=1;" parent="Dyjvj59BlJFhL8W1Vqrt-180" vertex="1">
          <mxGeometry x="41.789999999999964" y="74" width="270" height="40" as="geometry" />
        </mxCell>
        <mxCell id="Dyjvj59BlJFhL8W1Vqrt-20" value="" style="edgeStyle=orthogonalEdgeStyle;rounded=0;orthogonalLoop=1;jettySize=auto;html=1;" parent="Dyjvj59BlJFhL8W1Vqrt-180" source="Dyjvj59BlJFhL8W1Vqrt-22" target="Dyjvj59BlJFhL8W1Vqrt-24" edge="1">
          <mxGeometry relative="1" as="geometry" />
        </mxCell>
        <mxCell id="Dyjvj59BlJFhL8W1Vqrt-21" value="" style="edgeStyle=orthogonalEdgeStyle;rounded=0;orthogonalLoop=1;jettySize=auto;html=1;" parent="Dyjvj59BlJFhL8W1Vqrt-180" source="Dyjvj59BlJFhL8W1Vqrt-22" target="Dyjvj59BlJFhL8W1Vqrt-31" edge="1">
          <mxGeometry relative="1" as="geometry" />
        </mxCell>
        <mxCell id="Dyjvj59BlJFhL8W1Vqrt-22" value="M4A 格式" style="rhombus;whiteSpace=wrap;html=1;" parent="Dyjvj59BlJFhL8W1Vqrt-180" vertex="1">
          <mxGeometry x="136.78999999999996" y="234" width="80" height="50" as="geometry" />
        </mxCell>
        <mxCell id="Dyjvj59BlJFhL8W1Vqrt-23" value="" style="edgeStyle=orthogonalEdgeStyle;rounded=0;orthogonalLoop=1;jettySize=auto;html=1;" parent="Dyjvj59BlJFhL8W1Vqrt-180" source="Dyjvj59BlJFhL8W1Vqrt-24" target="Dyjvj59BlJFhL8W1Vqrt-28" edge="1">
          <mxGeometry relative="1" as="geometry" />
        </mxCell>
        <mxCell id="Dyjvj59BlJFhL8W1Vqrt-24" value="获取 albumId 的 Episode 集合中&lt;div&gt;最大的序号&lt;/div&gt;" style="whiteSpace=wrap;html=1;" parent="Dyjvj59BlJFhL8W1Vqrt-180" vertex="1">
          <mxGeometry x="86.78999999999996" y="320" width="180" height="45" as="geometry" />
        </mxCell>
        <mxCell id="Dyjvj59BlJFhL8W1Vqrt-25" value="Y" style="text;html=1;align=center;verticalAlign=middle;resizable=0;points=[];autosize=1;strokeColor=none;fillColor=none;" parent="Dyjvj59BlJFhL8W1Vqrt-180" vertex="1">
          <mxGeometry x="171" y="279" width="30" height="30" as="geometry" />
        </mxCell>
        <mxCell id="Dyjvj59BlJFhL8W1Vqrt-27" style="edgeStyle=orthogonalEdgeStyle;rounded=0;orthogonalLoop=1;jettySize=auto;html=1;exitX=0.5;exitY=1;exitDx=0;exitDy=0;entryX=0.5;entryY=0;entryDx=0;entryDy=0;" parent="Dyjvj59BlJFhL8W1Vqrt-180" source="Dyjvj59BlJFhL8W1Vqrt-28" target="Dyjvj59BlJFhL8W1Vqrt-87" edge="1">
          <mxGeometry relative="1" as="geometry" />
        </mxCell>
        <mxCell id="Dyjvj59BlJFhL8W1Vqrt-375" style="edgeStyle=orthogonalEdgeStyle;rounded=0;orthogonalLoop=1;jettySize=auto;html=1;exitX=1;exitY=0.5;exitDx=0;exitDy=0;entryX=0.5;entryY=0;entryDx=0;entryDy=0;dashed=1;curved=1;" parent="Dyjvj59BlJFhL8W1Vqrt-180" source="Dyjvj59BlJFhL8W1Vqrt-28" target="Dyjvj59BlJFhL8W1Vqrt-374" edge="1">
          <mxGeometry relative="1" as="geometry" />
        </mxCell>
        <mxCell id="Dyjvj59BlJFhL8W1Vqrt-28" value="Episod 插入数据" style="whiteSpace=wrap;html=1;" parent="Dyjvj59BlJFhL8W1Vqrt-180" vertex="1">
          <mxGeometry x="116.78999999999996" y="408" width="120" height="30" as="geometry" />
        </mxCell>
        <mxCell id="Dyjvj59BlJFhL8W1Vqrt-29" value="" style="edgeStyle=orthogonalEdgeStyle;rounded=0;orthogonalLoop=1;jettySize=auto;html=1;" parent="Dyjvj59BlJFhL8W1Vqrt-180" source="Dyjvj59BlJFhL8W1Vqrt-31" target="Dyjvj59BlJFhL8W1Vqrt-35" edge="1">
          <mxGeometry relative="1" as="geometry" />
        </mxCell>
        <mxCell id="Dyjvj59BlJFhL8W1Vqrt-30" style="edgeStyle=orthogonalEdgeStyle;rounded=0;orthogonalLoop=1;jettySize=auto;html=1;exitX=0.576;exitY=0.998;exitDx=0;exitDy=0;entryX=0.5;entryY=0;entryDx=0;entryDy=0;curved=1;dashed=1;exitPerimeter=0;" parent="Dyjvj59BlJFhL8W1Vqrt-180" source="Dyjvj59BlJFhL8W1Vqrt-31" target="Dyjvj59BlJFhL8W1Vqrt-47" edge="1">
          <mxGeometry relative="1" as="geometry" />
        </mxCell>
        <mxCell id="Dyjvj59BlJFhL8W1Vqrt-31" value="EncodingEpisodeInfo 存储到Redis，&lt;div&gt;Status=Created&lt;br&gt;&lt;/div&gt;" style="whiteSpace=wrap;html=1;" parent="Dyjvj59BlJFhL8W1Vqrt-180" vertex="1">
          <mxGeometry x="312" y="319" width="210" height="42" as="geometry" />
        </mxCell>
        <mxCell id="Dyjvj59BlJFhL8W1Vqrt-32" value="N" style="text;html=1;align=center;verticalAlign=middle;resizable=0;points=[];autosize=1;strokeColor=none;fillColor=none;" parent="Dyjvj59BlJFhL8W1Vqrt-180" vertex="1">
          <mxGeometry x="220" y="235" width="30" height="30" as="geometry" />
        </mxCell>
        <mxCell id="Dyjvj59BlJFhL8W1Vqrt-33" style="edgeStyle=orthogonalEdgeStyle;rounded=0;orthogonalLoop=1;jettySize=auto;html=1;exitX=0.589;exitY=1.035;exitDx=0;exitDy=0;dashed=1;curved=1;exitPerimeter=0;" parent="Dyjvj59BlJFhL8W1Vqrt-180" source="Dyjvj59BlJFhL8W1Vqrt-35" target="Dyjvj59BlJFhL8W1Vqrt-48" edge="1">
          <mxGeometry relative="1" as="geometry" />
        </mxCell>
        <mxCell id="Dyjvj59BlJFhL8W1Vqrt-34" style="edgeStyle=orthogonalEdgeStyle;rounded=0;orthogonalLoop=1;jettySize=auto;html=1;exitX=0.5;exitY=1;exitDx=0;exitDy=0;" parent="Dyjvj59BlJFhL8W1Vqrt-180" source="Dyjvj59BlJFhL8W1Vqrt-35" edge="1">
          <mxGeometry relative="1" as="geometry">
            <mxPoint x="417" y="654" as="targetPoint" />
          </mxGeometry>
        </mxCell>
        <mxCell id="Dyjvj59BlJFhL8W1Vqrt-35" value="发布集成事件 “MediaEncoding.Created”&amp;nbsp;&amp;nbsp;" style="shape=parallelogram;perimeter=parallelogramPerimeter;whiteSpace=wrap;html=1;fixedSize=1;" parent="Dyjvj59BlJFhL8W1Vqrt-180" vertex="1">
          <mxGeometry x="331" y="470" width="172" height="43" as="geometry" />
        </mxCell>
        <mxCell id="Dyjvj59BlJFhL8W1Vqrt-36" style="edgeStyle=orthogonalEdgeStyle;rounded=0;orthogonalLoop=1;jettySize=auto;html=1;exitX=0.5;exitY=1;exitDx=0;exitDy=0;entryX=0.5;entryY=0;entryDx=0;entryDy=0;" parent="Dyjvj59BlJFhL8W1Vqrt-180" source="Dyjvj59BlJFhL8W1Vqrt-38" target="Dyjvj59BlJFhL8W1Vqrt-22" edge="1">
          <mxGeometry relative="1" as="geometry" />
        </mxCell>
        <mxCell id="Dyjvj59BlJFhL8W1Vqrt-37" value="" style="edgeStyle=orthogonalEdgeStyle;rounded=0;orthogonalLoop=1;jettySize=auto;html=1;" parent="Dyjvj59BlJFhL8W1Vqrt-180" source="Dyjvj59BlJFhL8W1Vqrt-38" target="Dyjvj59BlJFhL8W1Vqrt-42" edge="1">
          <mxGeometry relative="1" as="geometry" />
        </mxCell>
        <mxCell id="Dyjvj59BlJFhL8W1Vqrt-38" value="JWT 验证" style="rhombus;whiteSpace=wrap;html=1;" parent="Dyjvj59BlJFhL8W1Vqrt-180" vertex="1">
          <mxGeometry x="136.78999999999996" y="144" width="80" height="50" as="geometry" />
        </mxCell>
        <mxCell id="Dyjvj59BlJFhL8W1Vqrt-39" value="Y" style="text;html=1;align=center;verticalAlign=middle;resizable=0;points=[];autosize=1;strokeColor=none;fillColor=none;" parent="Dyjvj59BlJFhL8W1Vqrt-180" vertex="1">
          <mxGeometry x="171" y="192" width="30" height="30" as="geometry" />
        </mxCell>
        <mxCell id="Dyjvj59BlJFhL8W1Vqrt-40" value="" style="edgeStyle=orthogonalEdgeStyle;rounded=0;orthogonalLoop=1;jettySize=auto;html=1;" parent="Dyjvj59BlJFhL8W1Vqrt-180" source="Dyjvj59BlJFhL8W1Vqrt-41" edge="1">
          <mxGeometry relative="1" as="geometry">
            <mxPoint x="177" y="654" as="targetPoint" />
          </mxGeometry>
        </mxCell>
        <mxCell id="Dyjvj59BlJFhL8W1Vqrt-41" value="输出 Episode 的 Id" style="shape=parallelogram;perimeter=parallelogramPerimeter;whiteSpace=wrap;html=1;fixedSize=1;" parent="Dyjvj59BlJFhL8W1Vqrt-180" vertex="1">
          <mxGeometry x="108.40000000000009" y="529" width="136.79" height="30" as="geometry" />
        </mxCell>
        <mxCell id="Dyjvj59BlJFhL8W1Vqrt-42" value="401 无权限" style="whiteSpace=wrap;html=1;" parent="Dyjvj59BlJFhL8W1Vqrt-180" vertex="1">
          <mxGeometry y="249" width="70" height="30" as="geometry" />
        </mxCell>
        <mxCell id="Dyjvj59BlJFhL8W1Vqrt-43" style="edgeStyle=orthogonalEdgeStyle;rounded=0;orthogonalLoop=1;jettySize=auto;html=1;exitX=0.5;exitY=1;exitDx=0;exitDy=0;entryX=0;entryY=0.5;entryDx=0;entryDy=0;entryPerimeter=0;" parent="Dyjvj59BlJFhL8W1Vqrt-180" source="Dyjvj59BlJFhL8W1Vqrt-42" target="Dyjvj59BlJFhL8W1Vqrt-76" edge="1">
          <mxGeometry relative="1" as="geometry">
            <mxPoint x="145.99725172695798" y="604.5286342438376" as="targetPoint" />
          </mxGeometry>
        </mxCell>
        <mxCell id="Dyjvj59BlJFhL8W1Vqrt-44" value="N" style="text;html=1;align=center;verticalAlign=middle;resizable=0;points=[];autosize=1;strokeColor=none;fillColor=none;" parent="Dyjvj59BlJFhL8W1Vqrt-180" vertex="1">
          <mxGeometry x="106.78999999999996" y="144" width="30" height="30" as="geometry" />
        </mxCell>
        <mxCell id="Dyjvj59BlJFhL8W1Vqrt-45" style="edgeStyle=orthogonalEdgeStyle;rounded=0;orthogonalLoop=1;jettySize=auto;html=1;entryX=1;entryY=0.5;entryDx=0;entryDy=0;dashed=1;curved=1;exitX=0.5;exitY=1;exitDx=0;exitDy=0;" parent="Dyjvj59BlJFhL8W1Vqrt-180" source="Dyjvj59BlJFhL8W1Vqrt-46" target="Dyjvj59BlJFhL8W1Vqrt-24" edge="1">
          <mxGeometry relative="1" as="geometry" />
        </mxCell>
        <mxCell id="Dyjvj59BlJFhL8W1Vqrt-46" value="DB" style="shape=datastore;whiteSpace=wrap;html=1;fontSize=12;align=center;" parent="Dyjvj59BlJFhL8W1Vqrt-180" vertex="1">
          <mxGeometry x="274.20000000000005" y="265" width="31.59" height="31.53" as="geometry" />
        </mxCell>
        <mxCell id="Dyjvj59BlJFhL8W1Vqrt-47" value="Redis" style="shape=datastore;whiteSpace=wrap;html=1;fontSize=12;align=center;" parent="Dyjvj59BlJFhL8W1Vqrt-180" vertex="1">
          <mxGeometry x="478" y="402" width="41.59" height="31.06" as="geometry" />
        </mxCell>
        <mxCell id="Dyjvj59BlJFhL8W1Vqrt-48" value="RabbitMQ" style="shape=datastore;whiteSpace=wrap;html=1;fontSize=12;align=center;" parent="Dyjvj59BlJFhL8W1Vqrt-180" vertex="1">
          <mxGeometry x="442.99999999999994" y="559" width="60" height="40" as="geometry" />
        </mxCell>
        <mxCell id="Dyjvj59BlJFhL8W1Vqrt-49" style="edgeStyle=orthogonalEdgeStyle;rounded=0;orthogonalLoop=1;jettySize=auto;html=1;exitX=0.5;exitY=1;exitDx=0;exitDy=0;entryX=0.5;entryY=0;entryDx=0;entryDy=0;" parent="Dyjvj59BlJFhL8W1Vqrt-180" source="Dyjvj59BlJFhL8W1Vqrt-50" target="Dyjvj59BlJFhL8W1Vqrt-53" edge="1">
          <mxGeometry relative="1" as="geometry" />
        </mxCell>
        <mxCell id="Dyjvj59BlJFhL8W1Vqrt-50" value="api/Episode/Sort&lt;div&gt;（请求体&lt;span style=&quot;background-color: initial;&quot;&gt;EpisodesSortRequest、JWT 权限认证）&lt;/span&gt;&lt;/div&gt;" style="shape=parallelogram;perimeter=parallelogramPerimeter;whiteSpace=wrap;html=1;fixedSize=1;" parent="Dyjvj59BlJFhL8W1Vqrt-180" vertex="1">
          <mxGeometry x="608" y="76" width="270" height="40" as="geometry" />
        </mxCell>
        <mxCell id="Dyjvj59BlJFhL8W1Vqrt-51" value="" style="edgeStyle=orthogonalEdgeStyle;rounded=0;orthogonalLoop=1;jettySize=auto;html=1;" parent="Dyjvj59BlJFhL8W1Vqrt-180" source="Dyjvj59BlJFhL8W1Vqrt-53" target="Dyjvj59BlJFhL8W1Vqrt-56" edge="1">
          <mxGeometry relative="1" as="geometry" />
        </mxCell>
        <mxCell id="Dyjvj59BlJFhL8W1Vqrt-52" value="" style="edgeStyle=orthogonalEdgeStyle;rounded=0;orthogonalLoop=1;jettySize=auto;html=1;" parent="Dyjvj59BlJFhL8W1Vqrt-180" source="Dyjvj59BlJFhL8W1Vqrt-53" target="Dyjvj59BlJFhL8W1Vqrt-71" edge="1">
          <mxGeometry relative="1" as="geometry" />
        </mxCell>
        <mxCell id="Dyjvj59BlJFhL8W1Vqrt-53" value="JWT 验证" style="rhombus;whiteSpace=wrap;html=1;" parent="Dyjvj59BlJFhL8W1Vqrt-180" vertex="1">
          <mxGeometry x="703" y="143" width="80" height="50" as="geometry" />
        </mxCell>
        <mxCell id="Dyjvj59BlJFhL8W1Vqrt-54" style="edgeStyle=orthogonalEdgeStyle;rounded=0;orthogonalLoop=1;jettySize=auto;html=1;entryX=0.5;entryY=0;entryDx=0;entryDy=0;" parent="Dyjvj59BlJFhL8W1Vqrt-180" source="Dyjvj59BlJFhL8W1Vqrt-56" target="Dyjvj59BlJFhL8W1Vqrt-66" edge="1">
          <mxGeometry relative="1" as="geometry" />
        </mxCell>
        <mxCell id="Dyjvj59BlJFhL8W1Vqrt-55" value="" style="edgeStyle=orthogonalEdgeStyle;rounded=0;orthogonalLoop=1;jettySize=auto;html=1;" parent="Dyjvj59BlJFhL8W1Vqrt-180" source="Dyjvj59BlJFhL8W1Vqrt-56" target="Dyjvj59BlJFhL8W1Vqrt-69" edge="1">
          <mxGeometry relative="1" as="geometry" />
        </mxCell>
        <mxCell id="Dyjvj59BlJFhL8W1Vqrt-56" value="排序的Id集合&amp;nbsp;&lt;div&gt;和&amp;nbsp;&lt;div&gt;数据库中的Id集合&lt;/div&gt;&lt;div&gt;相等&lt;/div&gt;&lt;/div&gt;" style="rhombus;whiteSpace=wrap;html=1;" parent="Dyjvj59BlJFhL8W1Vqrt-180" vertex="1">
          <mxGeometry x="679" y="227.97000000000003" width="127.5" height="95" as="geometry" />
        </mxCell>
        <mxCell id="Dyjvj59BlJFhL8W1Vqrt-57" value="Y" style="text;html=1;align=center;verticalAlign=middle;resizable=0;points=[];autosize=1;strokeColor=none;fillColor=none;" parent="Dyjvj59BlJFhL8W1Vqrt-180" vertex="1">
          <mxGeometry x="734.6700000000001" y="316" width="30" height="30" as="geometry" />
        </mxCell>
        <mxCell id="Dyjvj59BlJFhL8W1Vqrt-58" value="" style="edgeStyle=orthogonalEdgeStyle;rounded=0;orthogonalLoop=1;jettySize=auto;html=1;" parent="Dyjvj59BlJFhL8W1Vqrt-180" source="Dyjvj59BlJFhL8W1Vqrt-60" target="Dyjvj59BlJFhL8W1Vqrt-64" edge="1">
          <mxGeometry relative="1" as="geometry" />
        </mxCell>
        <mxCell id="Dyjvj59BlJFhL8W1Vqrt-59" style="edgeStyle=orthogonalEdgeStyle;rounded=0;orthogonalLoop=1;jettySize=auto;html=1;exitX=1;exitY=0.5;exitDx=0;exitDy=0;" parent="Dyjvj59BlJFhL8W1Vqrt-180" source="Dyjvj59BlJFhL8W1Vqrt-60" edge="1">
          <mxGeometry relative="1" as="geometry">
            <mxPoint x="846" y="654" as="targetPoint" />
          </mxGeometry>
        </mxCell>
        <mxCell id="Dyjvj59BlJFhL8W1Vqrt-60" value="遍历排序的&lt;div&gt;Id集合完成&lt;/div&gt;" style="rhombus;whiteSpace=wrap;html=1;" parent="Dyjvj59BlJFhL8W1Vqrt-180" vertex="1">
          <mxGeometry x="699.75" y="404.5" width="85.25" height="73" as="geometry" />
        </mxCell>
        <mxCell id="Dyjvj59BlJFhL8W1Vqrt-61" style="edgeStyle=orthogonalEdgeStyle;rounded=0;orthogonalLoop=1;jettySize=auto;html=1;entryX=0;entryY=0.5;entryDx=0;entryDy=0;exitX=0;exitY=0.5;exitDx=0;exitDy=0;" parent="Dyjvj59BlJFhL8W1Vqrt-180" source="Dyjvj59BlJFhL8W1Vqrt-101" target="Dyjvj59BlJFhL8W1Vqrt-60" edge="1">
          <mxGeometry relative="1" as="geometry">
            <Array as="points">
              <mxPoint x="680" y="614" />
              <mxPoint x="648" y="614" />
              <mxPoint x="648" y="441" />
            </Array>
          </mxGeometry>
        </mxCell>
        <mxCell id="Dyjvj59BlJFhL8W1Vqrt-63" value="" style="edgeStyle=orthogonalEdgeStyle;rounded=0;orthogonalLoop=1;jettySize=auto;html=1;" parent="Dyjvj59BlJFhL8W1Vqrt-180" source="Dyjvj59BlJFhL8W1Vqrt-64" target="Dyjvj59BlJFhL8W1Vqrt-101" edge="1">
          <mxGeometry relative="1" as="geometry" />
        </mxCell>
        <mxCell id="Dyjvj59BlJFhL8W1Vqrt-189" style="edgeStyle=orthogonalEdgeStyle;rounded=0;orthogonalLoop=1;jettySize=auto;html=1;exitX=0.75;exitY=1;exitDx=0;exitDy=0;entryX=0.5;entryY=0;entryDx=0;entryDy=0;dashed=1;curved=1;" parent="Dyjvj59BlJFhL8W1Vqrt-180" source="Dyjvj59BlJFhL8W1Vqrt-64" target="Dyjvj59BlJFhL8W1Vqrt-188" edge="1">
          <mxGeometry relative="1" as="geometry" />
        </mxCell>
        <mxCell id="Dyjvj59BlJFhL8W1Vqrt-64" value="更改Episode的Id序号，&lt;div&gt;序号= num++;&lt;/div&gt;&lt;div&gt;插入到数据库&lt;/div&gt;" style="whiteSpace=wrap;html=1;" parent="Dyjvj59BlJFhL8W1Vqrt-180" vertex="1">
          <mxGeometry x="673.9100000000003" y="507" width="136.94" height="54" as="geometry" />
        </mxCell>
        <mxCell id="Dyjvj59BlJFhL8W1Vqrt-65" style="edgeStyle=orthogonalEdgeStyle;rounded=0;orthogonalLoop=1;jettySize=auto;html=1;" parent="Dyjvj59BlJFhL8W1Vqrt-180" source="Dyjvj59BlJFhL8W1Vqrt-66" target="Dyjvj59BlJFhL8W1Vqrt-60" edge="1">
          <mxGeometry relative="1" as="geometry" />
        </mxCell>
        <mxCell id="Dyjvj59BlJFhL8W1Vqrt-66" value="&lt;div&gt;num=1&lt;/div&gt;" style="whiteSpace=wrap;html=1;" parent="Dyjvj59BlJFhL8W1Vqrt-180" vertex="1">
          <mxGeometry x="720.8299999999999" y="353" width="43.84" height="24" as="geometry" />
        </mxCell>
        <mxCell id="Dyjvj59BlJFhL8W1Vqrt-67" value="N" style="text;html=1;align=center;verticalAlign=middle;resizable=0;points=[];autosize=1;strokeColor=none;fillColor=none;" parent="Dyjvj59BlJFhL8W1Vqrt-180" vertex="1">
          <mxGeometry x="734.6700000000001" y="477" width="30" height="30" as="geometry" />
        </mxCell>
        <mxCell id="Dyjvj59BlJFhL8W1Vqrt-68" style="edgeStyle=orthogonalEdgeStyle;rounded=0;orthogonalLoop=1;jettySize=auto;html=1;exitX=0.5;exitY=1;exitDx=0;exitDy=0;" parent="Dyjvj59BlJFhL8W1Vqrt-180" source="Dyjvj59BlJFhL8W1Vqrt-69" edge="1">
          <mxGeometry relative="1" as="geometry">
            <mxPoint x="898" y="654" as="targetPoint" />
          </mxGeometry>
        </mxCell>
        <mxCell id="Dyjvj59BlJFhL8W1Vqrt-69" value="抛异常：&lt;div&gt;提交的待排序Id中&lt;/div&gt;&lt;div&gt;必须是所有的分类Id&lt;/div&gt;" style="whiteSpace=wrap;html=1;" parent="Dyjvj59BlJFhL8W1Vqrt-180" vertex="1">
          <mxGeometry x="838" y="329" width="120" height="55" as="geometry" />
        </mxCell>
        <mxCell id="Dyjvj59BlJFhL8W1Vqrt-70" style="edgeStyle=orthogonalEdgeStyle;rounded=0;orthogonalLoop=1;jettySize=auto;html=1;exitX=0.5;exitY=1;exitDx=0;exitDy=0;" parent="Dyjvj59BlJFhL8W1Vqrt-180" source="Dyjvj59BlJFhL8W1Vqrt-71" edge="1">
          <mxGeometry relative="1" as="geometry">
            <mxPoint x="616" y="654" as="targetPoint" />
          </mxGeometry>
        </mxCell>
        <mxCell id="Dyjvj59BlJFhL8W1Vqrt-71" value="401 无权限" style="whiteSpace=wrap;html=1;" parent="Dyjvj59BlJFhL8W1Vqrt-180" vertex="1">
          <mxGeometry x="578" y="213" width="75" height="25" as="geometry" />
        </mxCell>
        <mxCell id="Dyjvj59BlJFhL8W1Vqrt-72" value="N" style="text;html=1;align=center;verticalAlign=middle;resizable=0;points=[];autosize=1;strokeColor=none;fillColor=none;" parent="Dyjvj59BlJFhL8W1Vqrt-180" vertex="1">
          <mxGeometry x="803" y="251" width="30" height="30" as="geometry" />
        </mxCell>
        <mxCell id="Dyjvj59BlJFhL8W1Vqrt-73" value="Y" style="text;html=1;align=center;verticalAlign=middle;resizable=0;points=[];autosize=1;strokeColor=none;fillColor=none;" parent="Dyjvj59BlJFhL8W1Vqrt-180" vertex="1">
          <mxGeometry x="734.6700000000001" y="189.97000000000003" width="30" height="30" as="geometry" />
        </mxCell>
        <mxCell id="Dyjvj59BlJFhL8W1Vqrt-74" value="N" style="text;html=1;align=center;verticalAlign=middle;resizable=0;points=[];autosize=1;strokeColor=none;fillColor=none;" parent="Dyjvj59BlJFhL8W1Vqrt-180" vertex="1">
          <mxGeometry x="669.75" y="144" width="30" height="30" as="geometry" />
        </mxCell>
        <mxCell id="Dyjvj59BlJFhL8W1Vqrt-75" value="Y" style="text;html=1;align=center;verticalAlign=middle;resizable=0;points=[];autosize=1;strokeColor=none;fillColor=none;" parent="Dyjvj59BlJFhL8W1Vqrt-180" vertex="1">
          <mxGeometry x="783" y="413" width="30" height="30" as="geometry" />
        </mxCell>
        <mxCell id="Dyjvj59BlJFhL8W1Vqrt-76" value="&lt;b style=&quot;font-size: 12px;&quot;&gt;&lt;font style=&quot;font-size: 12px;&quot;&gt;End&lt;/font&gt;&lt;/b&gt;" style="strokeWidth=2;html=1;shape=mxgraph.flowchart.start_1;whiteSpace=wrap;align=center;fontSize=12;" parent="Dyjvj59BlJFhL8W1Vqrt-180" vertex="1">
          <mxGeometry x="983.997251726958" y="633" width="61.58577366924964" height="41.05726848767489" as="geometry" />
        </mxCell>
        <mxCell id="Dyjvj59BlJFhL8W1Vqrt-77" value="DB" style="shape=datastore;whiteSpace=wrap;html=1;fontSize=12;align=center;" parent="Dyjvj59BlJFhL8W1Vqrt-180" vertex="1">
          <mxGeometry x="668.16" y="196.44" width="31.59" height="31.53" as="geometry" />
        </mxCell>
        <mxCell id="Dyjvj59BlJFhL8W1Vqrt-78" value="Http请求" style="shape=parallelogram;perimeter=parallelogramPerimeter;whiteSpace=wrap;html=1;fixedSize=1;" parent="Dyjvj59BlJFhL8W1Vqrt-180" vertex="1">
          <mxGeometry x="866" y="5" width="78" height="31.06" as="geometry" />
        </mxCell>
        <mxCell id="Dyjvj59BlJFhL8W1Vqrt-79" style="edgeStyle=orthogonalEdgeStyle;rounded=0;orthogonalLoop=1;jettySize=auto;html=1;exitX=0.5;exitY=1;exitDx=0;exitDy=0;entryX=0.5;entryY=0;entryDx=0;entryDy=0;" parent="Dyjvj59BlJFhL8W1Vqrt-180" target="Dyjvj59BlJFhL8W1Vqrt-50" edge="1">
          <mxGeometry relative="1" as="geometry">
            <mxPoint x="742.1799999999998" y="20" as="sourcePoint" />
            <mxPoint x="742" y="48" as="targetPoint" />
          </mxGeometry>
        </mxCell>
        <mxCell id="Dyjvj59BlJFhL8W1Vqrt-80" value="" style="edgeStyle=orthogonalEdgeStyle;rounded=0;orthogonalLoop=1;jettySize=auto;html=1;" parent="Dyjvj59BlJFhL8W1Vqrt-180" source="Dyjvj59BlJFhL8W1Vqrt-81" target="Dyjvj59BlJFhL8W1Vqrt-83" edge="1">
          <mxGeometry relative="1" as="geometry" />
        </mxCell>
        <mxCell id="Dyjvj59BlJFhL8W1Vqrt-81" value="&lt;div&gt;监听领域事件&lt;/div&gt;&lt;div&gt;EpisodeCreateEvent&lt;br&gt;&lt;/div&gt;" style="shape=parallelogram;perimeter=parallelogramPerimeter;whiteSpace=wrap;html=1;fixedSize=1;align=center;" parent="Dyjvj59BlJFhL8W1Vqrt-180" vertex="1">
          <mxGeometry x="1123.58" y="74" width="197.11" height="40" as="geometry" />
        </mxCell>
        <mxCell id="Dyjvj59BlJFhL8W1Vqrt-82" style="edgeStyle=orthogonalEdgeStyle;rounded=0;orthogonalLoop=1;jettySize=auto;html=1;exitX=0.5;exitY=1;exitDx=0;exitDy=0;" parent="Dyjvj59BlJFhL8W1Vqrt-180" source="Dyjvj59BlJFhL8W1Vqrt-83" target="Dyjvj59BlJFhL8W1Vqrt-85" edge="1">
          <mxGeometry relative="1" as="geometry" />
        </mxCell>
        <mxCell id="Dyjvj59BlJFhL8W1Vqrt-83" value="领域事件处理者&lt;div&gt;EpisodeCreateEventHandler&lt;br&gt;&lt;/div&gt;" style="rounded=0;whiteSpace=wrap;html=1;" parent="Dyjvj59BlJFhL8W1Vqrt-180" vertex="1">
          <mxGeometry x="1118.1399999999994" y="213" width="208" height="40" as="geometry" />
        </mxCell>
        <mxCell id="Dyjvj59BlJFhL8W1Vqrt-84" style="edgeStyle=orthogonalEdgeStyle;rounded=0;orthogonalLoop=1;jettySize=auto;html=1;exitX=0.5;exitY=1;exitDx=0;exitDy=0;" parent="Dyjvj59BlJFhL8W1Vqrt-180" source="Dyjvj59BlJFhL8W1Vqrt-85" edge="1">
          <mxGeometry relative="1" as="geometry">
            <mxPoint x="1222.1399999999994" y="654" as="targetPoint" />
          </mxGeometry>
        </mxCell>
        <mxCell id="Dyjvj59BlJFhL8W1Vqrt-85" value="发布集成事件&amp;nbsp;&lt;div&gt;“ListeningService.Episode.Create”&lt;/div&gt;" style="shape=parallelogram;perimeter=parallelogramPerimeter;whiteSpace=wrap;html=1;fixedSize=1;align=center;" parent="Dyjvj59BlJFhL8W1Vqrt-180" vertex="1">
          <mxGeometry x="1117.1399999999999" y="413" width="210" height="40" as="geometry" />
        </mxCell>
        <mxCell id="Dyjvj59BlJFhL8W1Vqrt-86" style="edgeStyle=orthogonalEdgeStyle;rounded=0;orthogonalLoop=1;jettySize=auto;html=1;exitX=0.5;exitY=1;exitDx=0;exitDy=0;entryX=0.5;entryY=0;entryDx=0;entryDy=0;" parent="Dyjvj59BlJFhL8W1Vqrt-180" source="Dyjvj59BlJFhL8W1Vqrt-87" target="Dyjvj59BlJFhL8W1Vqrt-41" edge="1">
          <mxGeometry relative="1" as="geometry" />
        </mxCell>
        <mxCell id="Dyjvj59BlJFhL8W1Vqrt-87" value="发布领域事件EpisodeCreateEvent" style="shape=parallelogram;perimeter=parallelogramPerimeter;whiteSpace=wrap;html=1;fixedSize=1;" parent="Dyjvj59BlJFhL8W1Vqrt-180" vertex="1">
          <mxGeometry x="89.19000000000005" y="470" width="177.6" height="30" as="geometry" />
        </mxCell>
        <mxCell id="Dyjvj59BlJFhL8W1Vqrt-88" value="" style="edgeStyle=orthogonalEdgeStyle;rounded=0;orthogonalLoop=1;jettySize=auto;html=1;" parent="Dyjvj59BlJFhL8W1Vqrt-180" source="Dyjvj59BlJFhL8W1Vqrt-89" target="Dyjvj59BlJFhL8W1Vqrt-91" edge="1">
          <mxGeometry relative="1" as="geometry" />
        </mxCell>
        <mxCell id="Dyjvj59BlJFhL8W1Vqrt-89" value="&lt;div&gt;监听领域事件&lt;/div&gt;&lt;div&gt;EpisodeUpdateEvent&lt;br&gt;&lt;/div&gt;" style="shape=parallelogram;perimeter=parallelogramPerimeter;whiteSpace=wrap;html=1;fixedSize=1;align=center;" parent="Dyjvj59BlJFhL8W1Vqrt-180" vertex="1">
          <mxGeometry x="1352.44" y="77" width="197.11" height="40" as="geometry" />
        </mxCell>
        <mxCell id="Dyjvj59BlJFhL8W1Vqrt-90" value="" style="edgeStyle=orthogonalEdgeStyle;rounded=0;orthogonalLoop=1;jettySize=auto;html=1;" parent="Dyjvj59BlJFhL8W1Vqrt-180" source="Dyjvj59BlJFhL8W1Vqrt-91" target="Dyjvj59BlJFhL8W1Vqrt-96" edge="1">
          <mxGeometry relative="1" as="geometry" />
        </mxCell>
        <mxCell id="Dyjvj59BlJFhL8W1Vqrt-91" value="领域事件处理者&lt;div&gt;EpisodeUpdateEventHandler&lt;br&gt;&lt;/div&gt;" style="rounded=0;whiteSpace=wrap;html=1;" parent="Dyjvj59BlJFhL8W1Vqrt-180" vertex="1">
          <mxGeometry x="1346.9999999999995" y="214" width="208" height="40" as="geometry" />
        </mxCell>
        <mxCell id="Dyjvj59BlJFhL8W1Vqrt-92" style="edgeStyle=orthogonalEdgeStyle;rounded=0;orthogonalLoop=1;jettySize=auto;html=1;" parent="Dyjvj59BlJFhL8W1Vqrt-180" source="Dyjvj59BlJFhL8W1Vqrt-93" edge="1">
          <mxGeometry relative="1" as="geometry">
            <mxPoint x="1451" y="654" as="targetPoint" />
          </mxGeometry>
        </mxCell>
        <mxCell id="Dyjvj59BlJFhL8W1Vqrt-93" value="发布集成事件&amp;nbsp;&lt;div&gt;“ListeningService.Episode.Update”&lt;/div&gt;" style="shape=parallelogram;perimeter=parallelogramPerimeter;whiteSpace=wrap;html=1;fixedSize=1;align=center;" parent="Dyjvj59BlJFhL8W1Vqrt-180" vertex="1">
          <mxGeometry x="1346" y="412" width="210" height="40" as="geometry" />
        </mxCell>
        <mxCell id="Dyjvj59BlJFhL8W1Vqrt-94" value="" style="edgeStyle=orthogonalEdgeStyle;rounded=0;orthogonalLoop=1;jettySize=auto;html=1;" parent="Dyjvj59BlJFhL8W1Vqrt-180" source="Dyjvj59BlJFhL8W1Vqrt-96" target="Dyjvj59BlJFhL8W1Vqrt-93" edge="1">
          <mxGeometry relative="1" as="geometry" />
        </mxCell>
        <mxCell id="Dyjvj59BlJFhL8W1Vqrt-95" style="edgeStyle=orthogonalEdgeStyle;rounded=0;orthogonalLoop=1;jettySize=auto;html=1;entryX=0.5;entryY=0;entryDx=0;entryDy=0;" parent="Dyjvj59BlJFhL8W1Vqrt-180" source="Dyjvj59BlJFhL8W1Vqrt-96" target="Dyjvj59BlJFhL8W1Vqrt-99" edge="1">
          <mxGeometry relative="1" as="geometry">
            <mxPoint x="1636" y="328" as="targetPoint" />
          </mxGeometry>
        </mxCell>
        <mxCell id="Dyjvj59BlJFhL8W1Vqrt-96" value="episode.IsVisible" style="rhombus;whiteSpace=wrap;html=1;rounded=0;" parent="Dyjvj59BlJFhL8W1Vqrt-180" vertex="1">
          <mxGeometry x="1393.4899999999998" y="288" width="115" height="80" as="geometry" />
        </mxCell>
        <mxCell id="Dyjvj59BlJFhL8W1Vqrt-97" value="Y" style="text;html=1;align=center;verticalAlign=middle;resizable=0;points=[];autosize=1;strokeColor=none;fillColor=none;" parent="Dyjvj59BlJFhL8W1Vqrt-180" vertex="1">
          <mxGeometry x="1446" y="368" width="30" height="30" as="geometry" />
        </mxCell>
        <mxCell id="Dyjvj59BlJFhL8W1Vqrt-98" style="edgeStyle=orthogonalEdgeStyle;rounded=0;orthogonalLoop=1;jettySize=auto;html=1;" parent="Dyjvj59BlJFhL8W1Vqrt-180" source="Dyjvj59BlJFhL8W1Vqrt-99" edge="1">
          <mxGeometry relative="1" as="geometry">
            <mxPoint x="1666" y="654" as="targetPoint" />
          </mxGeometry>
        </mxCell>
        <mxCell id="Dyjvj59BlJFhL8W1Vqrt-99" value="发布集成事件&amp;nbsp;&lt;div&gt;“ListeningService.Episode.Hide”&lt;/div&gt;" style="shape=parallelogram;perimeter=parallelogramPerimeter;whiteSpace=wrap;html=1;fixedSize=1;align=center;" parent="Dyjvj59BlJFhL8W1Vqrt-180" vertex="1">
          <mxGeometry x="1576" y="413" width="180" height="40" as="geometry" />
        </mxCell>
        <mxCell id="Dyjvj59BlJFhL8W1Vqrt-100" value="N" style="text;html=1;align=center;verticalAlign=middle;resizable=0;points=[];autosize=1;strokeColor=none;fillColor=none;" parent="Dyjvj59BlJFhL8W1Vqrt-180" vertex="1">
          <mxGeometry x="1506" y="298" width="30" height="30" as="geometry" />
        </mxCell>
        <mxCell id="Dyjvj59BlJFhL8W1Vqrt-101" value="发布领域事件EpisodeUpdateEvent" style="shape=parallelogram;perimeter=parallelogramPerimeter;whiteSpace=wrap;html=1;fixedSize=1;" parent="Dyjvj59BlJFhL8W1Vqrt-180" vertex="1">
          <mxGeometry x="669.75" y="594" width="144.75" height="43" as="geometry" />
        </mxCell>
        <mxCell id="Dyjvj59BlJFhL8W1Vqrt-102" value="RabbitMQ" style="shape=datastore;whiteSpace=wrap;html=1;fontSize=12;align=center;" parent="Dyjvj59BlJFhL8W1Vqrt-180" vertex="1">
          <mxGeometry x="1516" y="536.5" width="60" height="40" as="geometry" />
        </mxCell>
        <mxCell id="Dyjvj59BlJFhL8W1Vqrt-103" style="edgeStyle=orthogonalEdgeStyle;rounded=0;orthogonalLoop=1;jettySize=auto;html=1;exitX=0.75;exitY=1;exitDx=0;exitDy=0;entryX=0.15;entryY=0.05;entryDx=0;entryDy=0;entryPerimeter=0;dashed=1;curved=1;" parent="Dyjvj59BlJFhL8W1Vqrt-180" source="Dyjvj59BlJFhL8W1Vqrt-85" target="Dyjvj59BlJFhL8W1Vqrt-102" edge="1">
          <mxGeometry relative="1" as="geometry" />
        </mxCell>
        <mxCell id="Dyjvj59BlJFhL8W1Vqrt-104" style="edgeStyle=orthogonalEdgeStyle;rounded=0;orthogonalLoop=1;jettySize=auto;html=1;exitX=0.25;exitY=1;exitDx=0;exitDy=0;entryX=0.381;entryY=0.071;entryDx=0;entryDy=0;entryPerimeter=0;dashed=1;curved=1;" parent="Dyjvj59BlJFhL8W1Vqrt-180" source="Dyjvj59BlJFhL8W1Vqrt-93" target="Dyjvj59BlJFhL8W1Vqrt-102" edge="1">
          <mxGeometry relative="1" as="geometry" />
        </mxCell>
        <mxCell id="Dyjvj59BlJFhL8W1Vqrt-105" style="edgeStyle=orthogonalEdgeStyle;rounded=0;orthogonalLoop=1;jettySize=auto;html=1;exitX=0.25;exitY=1;exitDx=0;exitDy=0;entryX=0.613;entryY=0.049;entryDx=0;entryDy=0;entryPerimeter=0;dashed=1;curved=1;" parent="Dyjvj59BlJFhL8W1Vqrt-180" source="Dyjvj59BlJFhL8W1Vqrt-99" target="Dyjvj59BlJFhL8W1Vqrt-102" edge="1">
          <mxGeometry relative="1" as="geometry" />
        </mxCell>
        <mxCell id="Dyjvj59BlJFhL8W1Vqrt-106" value="" style="edgeStyle=orthogonalEdgeStyle;rounded=0;orthogonalLoop=1;jettySize=auto;html=1;" parent="Dyjvj59BlJFhL8W1Vqrt-180" source="Dyjvj59BlJFhL8W1Vqrt-107" target="Dyjvj59BlJFhL8W1Vqrt-109" edge="1">
          <mxGeometry relative="1" as="geometry" />
        </mxCell>
        <mxCell id="Dyjvj59BlJFhL8W1Vqrt-107" value="&lt;div&gt;监听领域事件&lt;/div&gt;&lt;div&gt;EpisodeSoftDeleteEvent&lt;br&gt;&lt;/div&gt;" style="shape=parallelogram;perimeter=parallelogramPerimeter;whiteSpace=wrap;html=1;fixedSize=1;align=center;" parent="Dyjvj59BlJFhL8W1Vqrt-180" vertex="1">
          <mxGeometry x="1782.44" y="74" width="197.11" height="40" as="geometry" />
        </mxCell>
        <mxCell id="Dyjvj59BlJFhL8W1Vqrt-108" style="edgeStyle=orthogonalEdgeStyle;rounded=0;orthogonalLoop=1;jettySize=auto;html=1;exitX=0.5;exitY=1;exitDx=0;exitDy=0;" parent="Dyjvj59BlJFhL8W1Vqrt-180" source="Dyjvj59BlJFhL8W1Vqrt-109" target="Dyjvj59BlJFhL8W1Vqrt-111" edge="1">
          <mxGeometry relative="1" as="geometry" />
        </mxCell>
        <mxCell id="Dyjvj59BlJFhL8W1Vqrt-109" value="领域事件处理者&lt;div&gt;EpisodeSoftDeleteEventHandler&lt;br&gt;&lt;/div&gt;" style="rounded=0;whiteSpace=wrap;html=1;" parent="Dyjvj59BlJFhL8W1Vqrt-180" vertex="1">
          <mxGeometry x="1776.9999999999995" y="213" width="208" height="40" as="geometry" />
        </mxCell>
        <mxCell id="Dyjvj59BlJFhL8W1Vqrt-110" style="edgeStyle=orthogonalEdgeStyle;rounded=0;orthogonalLoop=1;jettySize=auto;html=1;" parent="Dyjvj59BlJFhL8W1Vqrt-180" source="Dyjvj59BlJFhL8W1Vqrt-111" edge="1">
          <mxGeometry relative="1" as="geometry">
            <mxPoint x="1881" y="654" as="targetPoint" />
          </mxGeometry>
        </mxCell>
        <mxCell id="Dyjvj59BlJFhL8W1Vqrt-111" value="发布集成事件&amp;nbsp;&lt;div&gt;“ListeningService.Episode.SoftDelete”&lt;/div&gt;" style="shape=parallelogram;perimeter=parallelogramPerimeter;whiteSpace=wrap;html=1;fixedSize=1;align=center;" parent="Dyjvj59BlJFhL8W1Vqrt-180" vertex="1">
          <mxGeometry x="1776" y="413" width="210" height="40" as="geometry" />
        </mxCell>
        <mxCell id="Dyjvj59BlJFhL8W1Vqrt-112" style="edgeStyle=orthogonalEdgeStyle;rounded=0;orthogonalLoop=1;jettySize=auto;html=1;exitX=0.25;exitY=1;exitDx=0;exitDy=0;entryX=0.85;entryY=0.05;entryDx=0;entryDy=0;entryPerimeter=0;dashed=1;curved=1;" parent="Dyjvj59BlJFhL8W1Vqrt-180" source="Dyjvj59BlJFhL8W1Vqrt-111" target="Dyjvj59BlJFhL8W1Vqrt-102" edge="1">
          <mxGeometry relative="1" as="geometry" />
        </mxCell>
        <mxCell id="Dyjvj59BlJFhL8W1Vqrt-113" value="" style="edgeStyle=orthogonalEdgeStyle;rounded=0;orthogonalLoop=1;jettySize=auto;html=1;" parent="Dyjvj59BlJFhL8W1Vqrt-180" source="Dyjvj59BlJFhL8W1Vqrt-114" target="Dyjvj59BlJFhL8W1Vqrt-117" edge="1">
          <mxGeometry relative="1" as="geometry" />
        </mxCell>
        <mxCell id="Dyjvj59BlJFhL8W1Vqrt-114" value="&lt;div style=&quot;font-size: 12px;&quot;&gt;&lt;span style=&quot;background-color: initial;&quot;&gt;监听集成&lt;/span&gt;&lt;span style=&quot;background-color: initial;&quot;&gt;事件&lt;/span&gt;&lt;br&gt;&lt;/div&gt;&lt;div style=&quot;&quot;&gt;&lt;span style=&quot;font-size: 12px; background-color: initial;&quot;&gt;&quot;&lt;/span&gt;&lt;span style=&quot;background-color: initial;&quot;&gt;MediaEncoding.Started&lt;/span&gt;&lt;span style=&quot;font-size: 12px; background-color: initial;&quot;&gt;&quot;、&lt;/span&gt;&lt;span style=&quot;background-color: initial;&quot;&gt;&quot;&lt;/span&gt;&lt;span style=&quot;background-color: initial;&quot;&gt;MediaEncoding.&lt;/span&gt;&lt;span style=&quot;background-color: initial;&quot;&gt;Completed&quot;&lt;/span&gt;&lt;/div&gt;&lt;div style=&quot;&quot;&gt;&lt;span style=&quot;background-color: initial;&quot;&gt;&quot;&lt;/span&gt;&lt;span style=&quot;background-color: initial;&quot;&gt;MediaEncoding.&lt;/span&gt;&lt;span style=&quot;background-color: initial;&quot;&gt;Failed&quot;、&lt;/span&gt;&lt;span style=&quot;background-color: initial;&quot;&gt;&quot;&lt;/span&gt;&lt;span style=&quot;background-color: initial;&quot;&gt;MediaEncoding.&lt;/span&gt;&lt;span style=&quot;background-color: initial;&quot;&gt;Duplicated&quot;&lt;/span&gt;&lt;/div&gt;" style="shape=parallelogram;perimeter=parallelogramPerimeter;whiteSpace=wrap;html=1;fixedSize=1;strokeWidth=2;fontSize=12;" parent="Dyjvj59BlJFhL8W1Vqrt-180" vertex="1">
          <mxGeometry x="2006.06" y="71" width="340" height="50" as="geometry" />
        </mxCell>
        <mxCell id="Dyjvj59BlJFhL8W1Vqrt-115" value="" style="edgeStyle=orthogonalEdgeStyle;rounded=0;orthogonalLoop=1;jettySize=auto;html=1;" parent="Dyjvj59BlJFhL8W1Vqrt-180" source="Dyjvj59BlJFhL8W1Vqrt-117" target="Dyjvj59BlJFhL8W1Vqrt-120" edge="1">
          <mxGeometry relative="1" as="geometry" />
        </mxCell>
        <mxCell id="Dyjvj59BlJFhL8W1Vqrt-116" style="edgeStyle=orthogonalEdgeStyle;rounded=0;orthogonalLoop=1;jettySize=auto;html=1;exitX=0;exitY=0.5;exitDx=0;exitDy=0;" parent="Dyjvj59BlJFhL8W1Vqrt-180" source="Dyjvj59BlJFhL8W1Vqrt-117" edge="1">
          <mxGeometry relative="1" as="geometry">
            <mxPoint x="2046" y="654" as="targetPoint" />
          </mxGeometry>
        </mxCell>
        <mxCell id="Dyjvj59BlJFhL8W1Vqrt-117" value="来源 ListeningServcie" style="rhombus;whiteSpace=wrap;html=1;strokeWidth=2;" parent="Dyjvj59BlJFhL8W1Vqrt-180" vertex="1">
          <mxGeometry x="2108.6" y="151" width="134.92" height="61" as="geometry" />
        </mxCell>
        <mxCell id="Dyjvj59BlJFhL8W1Vqrt-118" value="" style="edgeStyle=orthogonalEdgeStyle;rounded=0;orthogonalLoop=1;jettySize=auto;html=1;" parent="Dyjvj59BlJFhL8W1Vqrt-180" source="Dyjvj59BlJFhL8W1Vqrt-120" target="Dyjvj59BlJFhL8W1Vqrt-122" edge="1">
          <mxGeometry relative="1" as="geometry" />
        </mxCell>
        <mxCell id="Dyjvj59BlJFhL8W1Vqrt-119" value="" style="edgeStyle=orthogonalEdgeStyle;rounded=0;orthogonalLoop=1;jettySize=auto;html=1;" parent="Dyjvj59BlJFhL8W1Vqrt-180" source="Dyjvj59BlJFhL8W1Vqrt-120" target="Dyjvj59BlJFhL8W1Vqrt-134" edge="1">
          <mxGeometry relative="1" as="geometry" />
        </mxCell>
        <mxCell id="Dyjvj59BlJFhL8W1Vqrt-120" value="MediaEncoding.Started" style="rhombus;whiteSpace=wrap;html=1;strokeWidth=2;" parent="Dyjvj59BlJFhL8W1Vqrt-180" vertex="1">
          <mxGeometry x="2101.09" y="238" width="149.94" height="60" as="geometry" />
        </mxCell>
        <mxCell id="Dyjvj59BlJFhL8W1Vqrt-121" value="" style="edgeStyle=orthogonalEdgeStyle;rounded=0;orthogonalLoop=1;jettySize=auto;html=1;" parent="Dyjvj59BlJFhL8W1Vqrt-180" source="Dyjvj59BlJFhL8W1Vqrt-122" target="Dyjvj59BlJFhL8W1Vqrt-125" edge="1">
          <mxGeometry relative="1" as="geometry" />
        </mxCell>
        <mxCell id="Dyjvj59BlJFhL8W1Vqrt-122" value="MediaEncoding.Completed" style="rhombus;whiteSpace=wrap;html=1;strokeWidth=2;" parent="Dyjvj59BlJFhL8W1Vqrt-180" vertex="1">
          <mxGeometry x="2088.6000000000004" y="322" width="174.91" height="60" as="geometry" />
        </mxCell>
        <mxCell id="Dyjvj59BlJFhL8W1Vqrt-123" value="" style="edgeStyle=orthogonalEdgeStyle;rounded=0;orthogonalLoop=1;jettySize=auto;html=1;entryX=0.5;entryY=0;entryDx=0;entryDy=0;" parent="Dyjvj59BlJFhL8W1Vqrt-180" source="Dyjvj59BlJFhL8W1Vqrt-125" target="HFyLIgbZSCk5y-j1JaKC-2" edge="1">
          <mxGeometry relative="1" as="geometry">
            <mxPoint x="2176.086956521739" y="489.01096215942107" as="targetPoint" />
          </mxGeometry>
        </mxCell>
        <mxCell id="Dyjvj59BlJFhL8W1Vqrt-124" value="" style="edgeStyle=orthogonalEdgeStyle;rounded=0;orthogonalLoop=1;jettySize=auto;html=1;" parent="Dyjvj59BlJFhL8W1Vqrt-180" source="Dyjvj59BlJFhL8W1Vqrt-125" target="Dyjvj59BlJFhL8W1Vqrt-147" edge="1">
          <mxGeometry relative="1" as="geometry" />
        </mxCell>
        <mxCell id="Dyjvj59BlJFhL8W1Vqrt-125" value="MediaEncoding.Failed" style="rhombus;whiteSpace=wrap;html=1;strokeWidth=2;" parent="Dyjvj59BlJFhL8W1Vqrt-180" vertex="1">
          <mxGeometry x="2088.6000000000004" y="405" width="174.91" height="60" as="geometry" />
        </mxCell>
        <mxCell id="Dyjvj59BlJFhL8W1Vqrt-126" value="" style="edgeStyle=orthogonalEdgeStyle;rounded=0;orthogonalLoop=1;jettySize=auto;html=1;exitX=1;exitY=0.5;exitDx=0;exitDy=0;" parent="Dyjvj59BlJFhL8W1Vqrt-180" source="HFyLIgbZSCk5y-j1JaKC-2" target="Dyjvj59BlJFhL8W1Vqrt-151" edge="1">
          <mxGeometry relative="1" as="geometry">
            <mxPoint x="2263.3832536231885" y="519.0434782608697" as="sourcePoint" />
          </mxGeometry>
        </mxCell>
        <mxCell id="Dyjvj59BlJFhL8W1Vqrt-129" value="Y" style="text;html=1;align=center;verticalAlign=middle;resizable=0;points=[];autosize=1;strokeColor=none;fillColor=none;" parent="Dyjvj59BlJFhL8W1Vqrt-180" vertex="1">
          <mxGeometry x="2171" y="202" width="30" height="30" as="geometry" />
        </mxCell>
        <mxCell id="Dyjvj59BlJFhL8W1Vqrt-130" value="N" style="text;html=1;align=center;verticalAlign=middle;resizable=0;points=[];autosize=1;strokeColor=none;fillColor=none;" parent="Dyjvj59BlJFhL8W1Vqrt-180" vertex="1">
          <mxGeometry x="2171" y="292" width="30" height="30" as="geometry" />
        </mxCell>
        <mxCell id="Dyjvj59BlJFhL8W1Vqrt-131" value="N" style="text;html=1;align=center;verticalAlign=middle;resizable=0;points=[];autosize=1;strokeColor=none;fillColor=none;" parent="Dyjvj59BlJFhL8W1Vqrt-180" vertex="1">
          <mxGeometry x="2171" y="372" width="30" height="30" as="geometry" />
        </mxCell>
        <mxCell id="Dyjvj59BlJFhL8W1Vqrt-132" value="N" style="text;html=1;align=center;verticalAlign=middle;resizable=0;points=[];autosize=1;strokeColor=none;fillColor=none;" parent="Dyjvj59BlJFhL8W1Vqrt-180" vertex="1">
          <mxGeometry x="2171" y="458" width="30" height="30" as="geometry" />
        </mxCell>
        <mxCell id="Dyjvj59BlJFhL8W1Vqrt-133" value="" style="edgeStyle=orthogonalEdgeStyle;rounded=0;orthogonalLoop=1;jettySize=auto;html=1;" parent="Dyjvj59BlJFhL8W1Vqrt-180" source="Dyjvj59BlJFhL8W1Vqrt-134" target="Dyjvj59BlJFhL8W1Vqrt-136" edge="1">
          <mxGeometry relative="1" as="geometry" />
        </mxCell>
        <mxCell id="Dyjvj59BlJFhL8W1Vqrt-134" value="EncodingEpisodeInfo 存储到Redis，&lt;div&gt;Status=Started&lt;/div&gt;" style="whiteSpace=wrap;html=1;strokeWidth=2;" parent="Dyjvj59BlJFhL8W1Vqrt-180" vertex="1">
          <mxGeometry x="2296" y="245" width="210" height="46" as="geometry" />
        </mxCell>
        <mxCell id="Dyjvj59BlJFhL8W1Vqrt-135" style="edgeStyle=orthogonalEdgeStyle;rounded=0;orthogonalLoop=1;jettySize=auto;html=1;" parent="Dyjvj59BlJFhL8W1Vqrt-180" source="Dyjvj59BlJFhL8W1Vqrt-136" edge="1">
          <mxGeometry relative="1" as="geometry">
            <mxPoint x="3236" y="654" as="targetPoint" />
          </mxGeometry>
        </mxCell>
        <mxCell id="Dyjvj59BlJFhL8W1Vqrt-136" value="SendAsync(&quot;OnMediaEncodingStarted&quot;, episodeId)" style="whiteSpace=wrap;html=1;strokeWidth=2;" parent="Dyjvj59BlJFhL8W1Vqrt-180" vertex="1">
          <mxGeometry x="2892" y="245" width="300" height="46" as="geometry" />
        </mxCell>
        <mxCell id="Dyjvj59BlJFhL8W1Vqrt-137" value="" style="edgeStyle=orthogonalEdgeStyle;rounded=0;orthogonalLoop=1;jettySize=auto;html=1;exitX=1;exitY=0.5;exitDx=0;exitDy=0;" parent="Dyjvj59BlJFhL8W1Vqrt-180" source="Dyjvj59BlJFhL8W1Vqrt-122" target="Dyjvj59BlJFhL8W1Vqrt-139" edge="1">
          <mxGeometry relative="1" as="geometry">
            <mxPoint x="2251.03" y="351" as="sourcePoint" />
          </mxGeometry>
        </mxCell>
        <mxCell id="Dyjvj59BlJFhL8W1Vqrt-138" value="" style="edgeStyle=orthogonalEdgeStyle;rounded=0;orthogonalLoop=1;jettySize=auto;html=1;" parent="Dyjvj59BlJFhL8W1Vqrt-180" source="Dyjvj59BlJFhL8W1Vqrt-139" target="Dyjvj59BlJFhL8W1Vqrt-143" edge="1">
          <mxGeometry relative="1" as="geometry" />
        </mxCell>
        <mxCell id="Dyjvj59BlJFhL8W1Vqrt-139" value="EncodingEpisodeInfo 存储到Redis，&lt;div&gt;Status=Completed&lt;/div&gt;" style="whiteSpace=wrap;html=1;strokeWidth=2;" parent="Dyjvj59BlJFhL8W1Vqrt-180" vertex="1">
          <mxGeometry x="2296.03" y="328" width="210" height="46" as="geometry" />
        </mxCell>
        <mxCell id="Dyjvj59BlJFhL8W1Vqrt-140" style="edgeStyle=orthogonalEdgeStyle;rounded=0;orthogonalLoop=1;jettySize=auto;html=1;" parent="Dyjvj59BlJFhL8W1Vqrt-180" source="Dyjvj59BlJFhL8W1Vqrt-141" edge="1">
          <mxGeometry relative="1" as="geometry">
            <mxPoint x="3236" y="351" as="targetPoint" />
          </mxGeometry>
        </mxCell>
        <mxCell id="Dyjvj59BlJFhL8W1Vqrt-141" value="SendAsync(&quot;OnMediaEncodingCompleted&quot;, episodeId)" style="whiteSpace=wrap;html=1;strokeWidth=2;" parent="Dyjvj59BlJFhL8W1Vqrt-180" vertex="1">
          <mxGeometry x="2891" y="328" width="300" height="46" as="geometry" />
        </mxCell>
        <mxCell id="Dyjvj59BlJFhL8W1Vqrt-142" value="" style="edgeStyle=orthogonalEdgeStyle;rounded=0;orthogonalLoop=1;jettySize=auto;html=1;" parent="Dyjvj59BlJFhL8W1Vqrt-180" source="Dyjvj59BlJFhL8W1Vqrt-143" target="Dyjvj59BlJFhL8W1Vqrt-145" edge="1">
          <mxGeometry relative="1" as="geometry" />
        </mxCell>
        <mxCell id="Dyjvj59BlJFhL8W1Vqrt-143" value="获得 episodeId的数据&lt;div&gt;EncodingEpisodeInfo&amp;nbsp;&lt;br&gt;&lt;/div&gt;" style="whiteSpace=wrap;html=1;strokeWidth=2;" parent="Dyjvj59BlJFhL8W1Vqrt-180" vertex="1">
          <mxGeometry x="2553" y="328" width="135" height="46" as="geometry" />
        </mxCell>
        <mxCell id="Dyjvj59BlJFhL8W1Vqrt-144" value="" style="edgeStyle=orthogonalEdgeStyle;rounded=0;orthogonalLoop=1;jettySize=auto;html=1;" parent="Dyjvj59BlJFhL8W1Vqrt-180" source="Dyjvj59BlJFhL8W1Vqrt-145" target="Dyjvj59BlJFhL8W1Vqrt-141" edge="1">
          <mxGeometry relative="1" as="geometry" />
        </mxCell>
        <mxCell id="3-qrmSyR0CHp8DlLWiqb-1" style="edgeStyle=orthogonalEdgeStyle;rounded=0;orthogonalLoop=1;jettySize=auto;html=1;exitX=0.5;exitY=0;exitDx=0;exitDy=0;entryX=0.5;entryY=1;entryDx=0;entryDy=0;curved=1;dashed=1;" parent="Dyjvj59BlJFhL8W1Vqrt-180" source="Dyjvj59BlJFhL8W1Vqrt-145" target="Dyjvj59BlJFhL8W1Vqrt-178" edge="1">
          <mxGeometry relative="1" as="geometry" />
        </mxCell>
        <mxCell id="Dyjvj59BlJFhL8W1Vqrt-145" value="Episode插入到数据库" style="whiteSpace=wrap;html=1;strokeWidth=2;" parent="Dyjvj59BlJFhL8W1Vqrt-180" vertex="1">
          <mxGeometry x="2710" y="328" width="135" height="46" as="geometry" />
        </mxCell>
        <mxCell id="Dyjvj59BlJFhL8W1Vqrt-146" value="" style="edgeStyle=orthogonalEdgeStyle;rounded=0;orthogonalLoop=1;jettySize=auto;html=1;" parent="Dyjvj59BlJFhL8W1Vqrt-180" source="Dyjvj59BlJFhL8W1Vqrt-147" target="Dyjvj59BlJFhL8W1Vqrt-149" edge="1">
          <mxGeometry relative="1" as="geometry" />
        </mxCell>
        <mxCell id="Dyjvj59BlJFhL8W1Vqrt-147" value="EncodingEpisodeInfo 存储到Redis，&lt;div&gt;Status=Failed&lt;/div&gt;" style="whiteSpace=wrap;html=1;strokeWidth=2;" parent="Dyjvj59BlJFhL8W1Vqrt-180" vertex="1">
          <mxGeometry x="2296.03" y="412" width="210" height="46" as="geometry" />
        </mxCell>
        <mxCell id="Dyjvj59BlJFhL8W1Vqrt-148" style="edgeStyle=orthogonalEdgeStyle;rounded=0;orthogonalLoop=1;jettySize=auto;html=1;exitX=1;exitY=0.5;exitDx=0;exitDy=0;" parent="Dyjvj59BlJFhL8W1Vqrt-180" source="Dyjvj59BlJFhL8W1Vqrt-149" edge="1">
          <mxGeometry relative="1" as="geometry">
            <mxPoint x="3236" y="435" as="targetPoint" />
          </mxGeometry>
        </mxCell>
        <mxCell id="Dyjvj59BlJFhL8W1Vqrt-149" value="SendAsync(&quot;OnMediaEncodingFailed&quot;, episodeId)" style="whiteSpace=wrap;html=1;strokeWidth=2;" parent="Dyjvj59BlJFhL8W1Vqrt-180" vertex="1">
          <mxGeometry x="2892.0299999999997" y="412" width="300" height="46" as="geometry" />
        </mxCell>
        <mxCell id="Dyjvj59BlJFhL8W1Vqrt-150" value="" style="edgeStyle=orthogonalEdgeStyle;rounded=0;orthogonalLoop=1;jettySize=auto;html=1;" parent="Dyjvj59BlJFhL8W1Vqrt-180" source="Dyjvj59BlJFhL8W1Vqrt-151" target="Dyjvj59BlJFhL8W1Vqrt-153" edge="1">
          <mxGeometry relative="1" as="geometry" />
        </mxCell>
        <mxCell id="Dyjvj59BlJFhL8W1Vqrt-151" value="EncodingEpisodeInfo 存储到Redis，&lt;div&gt;Status=Completed&lt;/div&gt;" style="whiteSpace=wrap;html=1;strokeWidth=2;" parent="Dyjvj59BlJFhL8W1Vqrt-180" vertex="1">
          <mxGeometry x="2296.03" y="496" width="210" height="46" as="geometry" />
        </mxCell>
        <mxCell id="Dyjvj59BlJFhL8W1Vqrt-152" style="edgeStyle=orthogonalEdgeStyle;rounded=0;orthogonalLoop=1;jettySize=auto;html=1;" parent="Dyjvj59BlJFhL8W1Vqrt-180" source="Dyjvj59BlJFhL8W1Vqrt-153" edge="1">
          <mxGeometry relative="1" as="geometry">
            <mxPoint x="3236" y="519" as="targetPoint" />
          </mxGeometry>
        </mxCell>
        <mxCell id="Dyjvj59BlJFhL8W1Vqrt-153" value="SendAsync(&quot;OnMediaEncodingCompleted&quot;, episodeId)" style="whiteSpace=wrap;html=1;strokeWidth=2;" parent="Dyjvj59BlJFhL8W1Vqrt-180" vertex="1">
          <mxGeometry x="2892.0299999999997" y="496" width="300" height="46" as="geometry" />
        </mxCell>
        <mxCell id="Dyjvj59BlJFhL8W1Vqrt-154" value="Y" style="text;html=1;align=center;verticalAlign=middle;resizable=0;points=[];autosize=1;strokeColor=none;fillColor=none;" parent="Dyjvj59BlJFhL8W1Vqrt-180" vertex="1">
          <mxGeometry x="2243.52" y="245" width="30" height="30" as="geometry" />
        </mxCell>
        <mxCell id="Dyjvj59BlJFhL8W1Vqrt-155" value="Y" style="text;html=1;align=center;verticalAlign=middle;resizable=0;points=[];autosize=1;strokeColor=none;fillColor=none;" parent="Dyjvj59BlJFhL8W1Vqrt-180" vertex="1">
          <mxGeometry x="2251.03" y="329" width="30" height="30" as="geometry" />
        </mxCell>
        <mxCell id="Dyjvj59BlJFhL8W1Vqrt-156" value="Y" style="text;html=1;align=center;verticalAlign=middle;resizable=0;points=[];autosize=1;strokeColor=none;fillColor=none;" parent="Dyjvj59BlJFhL8W1Vqrt-180" vertex="1">
          <mxGeometry x="2251.03" y="412" width="30" height="30" as="geometry" />
        </mxCell>
        <mxCell id="Dyjvj59BlJFhL8W1Vqrt-159" value="N" style="text;html=1;align=center;verticalAlign=middle;resizable=0;points=[];autosize=1;strokeColor=none;fillColor=none;" parent="Dyjvj59BlJFhL8W1Vqrt-180" vertex="1">
          <mxGeometry x="2078.6" y="153" width="30" height="30" as="geometry" />
        </mxCell>
        <mxCell id="Dyjvj59BlJFhL8W1Vqrt-160" value="" style="edgeStyle=orthogonalEdgeStyle;rounded=0;orthogonalLoop=1;jettySize=auto;html=1;" parent="Dyjvj59BlJFhL8W1Vqrt-180" source="Dyjvj59BlJFhL8W1Vqrt-161" target="Dyjvj59BlJFhL8W1Vqrt-163" edge="1">
          <mxGeometry relative="1" as="geometry" />
        </mxCell>
        <mxCell id="Dyjvj59BlJFhL8W1Vqrt-161" value="&lt;div&gt;监听集成事件&lt;/div&gt;&lt;div&gt;“SearchService.ReIndexAll”&lt;/div&gt;" style="shape=parallelogram;perimeter=parallelogramPerimeter;whiteSpace=wrap;html=1;fixedSize=1;align=center;" parent="Dyjvj59BlJFhL8W1Vqrt-180" vertex="1">
          <mxGeometry x="3322.4400000000005" y="57.06" width="197.11" height="40" as="geometry" />
        </mxCell>
        <mxCell id="Dyjvj59BlJFhL8W1Vqrt-162" value="" style="edgeStyle=orthogonalEdgeStyle;rounded=0;orthogonalLoop=1;jettySize=auto;html=1;" parent="Dyjvj59BlJFhL8W1Vqrt-180" source="Dyjvj59BlJFhL8W1Vqrt-163" target="Dyjvj59BlJFhL8W1Vqrt-168" edge="1">
          <mxGeometry relative="1" as="geometry" />
        </mxCell>
        <mxCell id="Dyjvj59BlJFhL8W1Vqrt-163" value="集成事件处理者&lt;div&gt;ReIndexAllEventHandler&lt;br&gt;&lt;/div&gt;" style="rounded=0;whiteSpace=wrap;html=1;" parent="Dyjvj59BlJFhL8W1Vqrt-180" vertex="1">
          <mxGeometry x="3345" y="148.06" width="151" height="40" as="geometry" />
        </mxCell>
        <mxCell id="Dyjvj59BlJFhL8W1Vqrt-164" style="edgeStyle=orthogonalEdgeStyle;rounded=0;orthogonalLoop=1;jettySize=auto;html=1;exitX=0.5;exitY=1;exitDx=0;exitDy=0;entryX=1;entryY=0.5;entryDx=0;entryDy=0;entryPerimeter=0;" parent="Dyjvj59BlJFhL8W1Vqrt-180" source="Dyjvj59BlJFhL8W1Vqrt-165" target="Dyjvj59BlJFhL8W1Vqrt-76" edge="1">
          <mxGeometry relative="1" as="geometry">
            <mxPoint x="2356" y="794" as="targetPoint" />
          </mxGeometry>
        </mxCell>
        <mxCell id="Dyjvj59BlJFhL8W1Vqrt-165" value="发布集成事件&amp;nbsp;&lt;div&gt;“ListeningService.Episode.Update”&lt;/div&gt;" style="shape=parallelogram;perimeter=parallelogramPerimeter;whiteSpace=wrap;html=1;fixedSize=1;align=center;" parent="Dyjvj59BlJFhL8W1Vqrt-180" vertex="1">
          <mxGeometry x="3316" y="414" width="210" height="40" as="geometry" />
        </mxCell>
        <mxCell id="Dyjvj59BlJFhL8W1Vqrt-166" style="edgeStyle=orthogonalEdgeStyle;rounded=0;orthogonalLoop=1;jettySize=auto;html=1;exitX=0.5;exitY=1;exitDx=0;exitDy=0;entryX=0.5;entryY=0;entryDx=0;entryDy=0;" parent="Dyjvj59BlJFhL8W1Vqrt-180" source="Dyjvj59BlJFhL8W1Vqrt-168" target="Dyjvj59BlJFhL8W1Vqrt-165" edge="1">
          <mxGeometry relative="1" as="geometry" />
        </mxCell>
        <mxCell id="Dyjvj59BlJFhL8W1Vqrt-167" style="edgeStyle=orthogonalEdgeStyle;rounded=0;orthogonalLoop=1;jettySize=auto;html=1;exitX=0;exitY=0.5;exitDx=0;exitDy=0;" parent="Dyjvj59BlJFhL8W1Vqrt-180" source="Dyjvj59BlJFhL8W1Vqrt-168" edge="1">
          <mxGeometry relative="1" as="geometry">
            <mxPoint x="3266" y="654" as="targetPoint" />
          </mxGeometry>
        </mxCell>
        <mxCell id="Dyjvj59BlJFhL8W1Vqrt-168" value="遍历数据库中&lt;div&gt;&lt;span style=&quot;background-color: initial;&quot;&gt;所有 IsVisible=true的 Episode&lt;/span&gt;&lt;/div&gt;&lt;div&gt;结束&lt;/div&gt;" style="rhombus;whiteSpace=wrap;html=1;rounded=0;" parent="Dyjvj59BlJFhL8W1Vqrt-180" vertex="1">
          <mxGeometry x="3333.25" y="237.41000000000003" width="175.5" height="66.06" as="geometry" />
        </mxCell>
        <mxCell id="Dyjvj59BlJFhL8W1Vqrt-169" value="N" style="text;html=1;align=center;verticalAlign=middle;resizable=0;points=[];autosize=1;strokeColor=none;fillColor=none;" parent="Dyjvj59BlJFhL8W1Vqrt-180" vertex="1">
          <mxGeometry x="3416" y="300" width="30" height="30" as="geometry" />
        </mxCell>
        <mxCell id="Dyjvj59BlJFhL8W1Vqrt-170" value="Y" style="text;html=1;align=center;verticalAlign=middle;resizable=0;points=[];autosize=1;strokeColor=none;fillColor=none;" parent="Dyjvj59BlJFhL8W1Vqrt-180" vertex="1">
          <mxGeometry x="3303.25" y="247" width="30" height="30" as="geometry" />
        </mxCell>
        <mxCell id="Dyjvj59BlJFhL8W1Vqrt-171" value="" style="edgeStyle=orthogonalEdgeStyle;rounded=0;orthogonalLoop=1;jettySize=auto;html=1;exitX=1;exitY=0.5;exitDx=0;exitDy=0;exitPerimeter=0;entryX=0;entryY=0.5;entryDx=0;entryDy=0;" parent="Dyjvj59BlJFhL8W1Vqrt-180" source="Dyjvj59BlJFhL8W1Vqrt-17" target="Dyjvj59BlJFhL8W1Vqrt-172" edge="1">
          <mxGeometry relative="1" as="geometry">
            <mxPoint x="1046" y="21" as="sourcePoint" />
            <mxPoint x="3451" y="57" as="targetPoint" />
          </mxGeometry>
        </mxCell>
        <mxCell id="Dyjvj59BlJFhL8W1Vqrt-172" value="事件监听" style="shape=parallelogram;perimeter=parallelogramPerimeter;whiteSpace=wrap;html=1;fixedSize=1;" parent="Dyjvj59BlJFhL8W1Vqrt-180" vertex="1">
          <mxGeometry x="1083.1399999999999" y="5.060000000000002" width="78" height="31.06" as="geometry" />
        </mxCell>
        <mxCell id="Dyjvj59BlJFhL8W1Vqrt-173" value="" style="edgeStyle=orthogonalEdgeStyle;rounded=0;orthogonalLoop=1;jettySize=auto;html=1;entryX=0.5;entryY=0;entryDx=0;entryDy=0;" parent="Dyjvj59BlJFhL8W1Vqrt-180" target="Dyjvj59BlJFhL8W1Vqrt-81" edge="1">
          <mxGeometry relative="1" as="geometry">
            <mxPoint x="1222.2399999999998" y="20.060000000000002" as="sourcePoint" />
            <mxPoint x="1222.04" y="59.06" as="targetPoint" />
          </mxGeometry>
        </mxCell>
        <mxCell id="Dyjvj59BlJFhL8W1Vqrt-174" value="" style="edgeStyle=orthogonalEdgeStyle;rounded=0;orthogonalLoop=1;jettySize=auto;html=1;entryX=0.5;entryY=0;entryDx=0;entryDy=0;" parent="Dyjvj59BlJFhL8W1Vqrt-180" target="Dyjvj59BlJFhL8W1Vqrt-89" edge="1">
          <mxGeometry relative="1" as="geometry">
            <mxPoint x="1450.8799999999997" y="20.060000000000002" as="sourcePoint" />
            <mxPoint x="1450.6399999999999" y="74" as="targetPoint" />
          </mxGeometry>
        </mxCell>
        <mxCell id="Dyjvj59BlJFhL8W1Vqrt-175" value="" style="edgeStyle=orthogonalEdgeStyle;rounded=0;orthogonalLoop=1;jettySize=auto;html=1;entryX=0.5;entryY=0;entryDx=0;entryDy=0;" parent="Dyjvj59BlJFhL8W1Vqrt-180" target="Dyjvj59BlJFhL8W1Vqrt-107" edge="1">
          <mxGeometry relative="1" as="geometry">
            <mxPoint x="1880.6699999999996" y="20.060000000000002" as="sourcePoint" />
            <mxPoint x="1881" y="64" as="targetPoint" />
          </mxGeometry>
        </mxCell>
        <mxCell id="Dyjvj59BlJFhL8W1Vqrt-176" value="" style="edgeStyle=orthogonalEdgeStyle;rounded=0;orthogonalLoop=1;jettySize=auto;html=1;" parent="Dyjvj59BlJFhL8W1Vqrt-180" target="Dyjvj59BlJFhL8W1Vqrt-114" edge="1">
          <mxGeometry relative="1" as="geometry">
            <mxPoint x="2175.6399999999994" y="20.060000000000002" as="sourcePoint" />
            <mxPoint x="2175.9700000000003" y="74" as="targetPoint" />
          </mxGeometry>
        </mxCell>
        <mxCell id="Dyjvj59BlJFhL8W1Vqrt-177" value="Redis" style="shape=datastore;whiteSpace=wrap;html=1;fontSize=12;align=center;" parent="Dyjvj59BlJFhL8W1Vqrt-180" vertex="1">
          <mxGeometry x="2518" y="171.94" width="41.59" height="31.06" as="geometry" />
        </mxCell>
        <mxCell id="Dyjvj59BlJFhL8W1Vqrt-178" value="DB" style="shape=datastore;whiteSpace=wrap;html=1;fontSize=12;align=center;" parent="Dyjvj59BlJFhL8W1Vqrt-180" vertex="1">
          <mxGeometry x="2699" y="174" width="31.59" height="31.53" as="geometry" />
        </mxCell>
        <mxCell id="Dyjvj59BlJFhL8W1Vqrt-179" value="" style="image;points=[];aspect=fixed;html=1;align=center;shadow=0;dashed=0;image=img/lib/allied_telesis/computer_and_terminals/Personal_Computer_with_Server.svg;" parent="Dyjvj59BlJFhL8W1Vqrt-180" vertex="1">
          <mxGeometry x="2826" y="165.57" width="62.400000000000006" height="62.400000000000006" as="geometry" />
        </mxCell>
        <mxCell id="Dyjvj59BlJFhL8W1Vqrt-187" style="edgeStyle=orthogonalEdgeStyle;rounded=0;orthogonalLoop=1;jettySize=auto;html=1;entryX=1;entryY=0.5;entryDx=0;entryDy=0;exitX=0.5;exitY=1;exitDx=0;exitDy=0;dashed=1;curved=1;" parent="Dyjvj59BlJFhL8W1Vqrt-180" source="Dyjvj59BlJFhL8W1Vqrt-186" target="Dyjvj59BlJFhL8W1Vqrt-114" edge="1">
          <mxGeometry relative="1" as="geometry" />
        </mxCell>
        <mxCell id="Dyjvj59BlJFhL8W1Vqrt-186" value="RabbitMQ" style="shape=datastore;whiteSpace=wrap;html=1;fontSize=12;align=center;" parent="Dyjvj59BlJFhL8W1Vqrt-180" vertex="1">
          <mxGeometry x="2378" y="31" width="60" height="40" as="geometry" />
        </mxCell>
        <mxCell id="Dyjvj59BlJFhL8W1Vqrt-182" value="RabbitMQ" style="shape=datastore;whiteSpace=wrap;html=1;fontSize=12;align=center;" parent="Dyjvj59BlJFhL8W1Vqrt-180" vertex="1">
          <mxGeometry x="3466" y="514" width="60" height="40" as="geometry" />
        </mxCell>
        <mxCell id="Dyjvj59BlJFhL8W1Vqrt-183" style="edgeStyle=orthogonalEdgeStyle;rounded=0;orthogonalLoop=1;jettySize=auto;html=1;exitX=0.602;exitY=1.05;exitDx=0;exitDy=0;entryX=0.5;entryY=0;entryDx=0;entryDy=0;dashed=1;curved=1;exitPerimeter=0;" parent="Dyjvj59BlJFhL8W1Vqrt-180" source="Dyjvj59BlJFhL8W1Vqrt-165" target="Dyjvj59BlJFhL8W1Vqrt-182" edge="1">
          <mxGeometry relative="1" as="geometry" />
        </mxCell>
        <mxCell id="Dyjvj59BlJFhL8W1Vqrt-188" value="DB" style="shape=datastore;whiteSpace=wrap;html=1;fontSize=12;align=center;" parent="Dyjvj59BlJFhL8W1Vqrt-180" vertex="1">
          <mxGeometry x="858.0000000000001" y="605.47" width="31.59" height="31.53" as="geometry" />
        </mxCell>
        <mxCell id="Dyjvj59BlJFhL8W1Vqrt-374" value="DB" style="shape=datastore;whiteSpace=wrap;html=1;fontSize=12;align=center;" parent="Dyjvj59BlJFhL8W1Vqrt-180" vertex="1">
          <mxGeometry x="274.2000000000001" y="475.47" width="31.59" height="31.53" as="geometry" />
        </mxCell>
        <mxCell id="HFyLIgbZSCk5y-j1JaKC-2" value="MediaEncoding.Duplicated" style="whiteSpace=wrap;html=1;strokeWidth=2;" parent="Dyjvj59BlJFhL8W1Vqrt-180" vertex="1">
          <mxGeometry x="2101.09" y="504" width="150.06" height="30" as="geometry" />
        </mxCell>
        <mxCell id="Dyjvj59BlJFhL8W1Vqrt-181" value="ListeningService FlowChat" style="text;html=1;align=center;verticalAlign=middle;resizable=0;points=[];autosize=1;strokeColor=none;fillColor=none;fontSize=22;fontStyle=1" parent="1" vertex="1">
          <mxGeometry x="2730" y="10" width="280" height="40" as="geometry" />
        </mxCell>
        <mxCell id="Dyjvj59BlJFhL8W1Vqrt-185" style="edgeStyle=orthogonalEdgeStyle;rounded=0;orthogonalLoop=1;jettySize=auto;html=1;exitX=0.5;exitY=1;exitDx=0;exitDy=0;entryX=0.75;entryY=0;entryDx=0;entryDy=0;dashed=1;curved=1;" parent="1" source="Dyjvj59BlJFhL8W1Vqrt-184" target="Dyjvj59BlJFhL8W1Vqrt-161" edge="1">
          <mxGeometry relative="1" as="geometry" />
        </mxCell>
        <mxCell id="Dyjvj59BlJFhL8W1Vqrt-184" value="RabbitMQ" style="shape=datastore;whiteSpace=wrap;html=1;fontSize=12;align=center;" parent="1" vertex="1">
          <mxGeometry x="4628" y="110" width="60" height="40" as="geometry" />
        </mxCell>
      </root>
    </mxGraphModel>
  </diagram>
</mxfile>
